<mxfile host="app.diagrams.net" modified="2023-01-19T11:48:39.196Z" agent="5.0 (Windows NT 10.0; Win64; x64) AppleWebKit/537.36 (KHTML, like Gecko) Chrome/109.0.0.0 Safari/537.36" etag="5XEcviLrGIkcWXN3TLRO" version="20.2.3" type="github">
  <diagram id="kcdtvtUuouSTzEmoT8WX" name="Page-1">
    <mxGraphModel dx="711" dy="381" grid="1" gridSize="10" guides="1" tooltips="1" connect="1" arrows="1" fold="1" page="1" pageScale="1" pageWidth="827" pageHeight="1169" math="0" shadow="0">
      <root>
        <mxCell id="0" />
        <mxCell id="1" parent="0" />
        <mxCell id="JEbB6z0hx3I5MV0OKVah-1" value="&lt;br&gt;&lt;br&gt;&lt;font style=&quot;&quot; face=&quot;Comic Sans MS&quot;&gt;&lt;span style=&quot;font-size: 11px;&quot;&gt;&lt;br&gt;&lt;br&gt;&lt;br&gt;ToDo App User&lt;/span&gt;&lt;br&gt;&lt;div style=&quot;&quot;&gt;&lt;font style=&quot;font-size: 7px;&quot;&gt;Uses app to manage their Trello board&lt;/font&gt;&lt;/div&gt;&lt;/font&gt;" style="shape=actor;whiteSpace=wrap;html=1;fillColor=#cce5ff;strokeColor=#36393d;" parent="1" vertex="1">
          <mxGeometry x="340" y="80" width="100" height="130" as="geometry" />
        </mxCell>
        <mxCell id="Wpyd8DDEDYqjp7sosu9y-1" value="" style="endArrow=classic;html=1;rounded=0;fontFamily=Comic Sans MS;fontSize=7;fontColor=#000000;" edge="1" parent="1">
          <mxGeometry width="50" height="50" relative="1" as="geometry">
            <mxPoint x="389.75" y="210" as="sourcePoint" />
            <mxPoint x="389.75" y="270" as="targetPoint" />
          </mxGeometry>
        </mxCell>
      </root>
    </mxGraphModel>
  </diagram>
</mxfile>
